<?xml version="1.0" encoding="utf-8"?>
<!-- Generator: Adobe Illustrator 21.0.0, SVG Export Plug-In . SVG Version: 6.00 Build 0)  -->
<svg version="1.1" id="Calque_1" xmlns="http://www.w3.org/2000/svg" xmlns:xlink="http://www.w3.org/1999/xlink" x="0px" y="0px"
	 viewBox="0 0 176 48.5" style="enable-background:new 0 0 176 48.5;" xml:space="preserve">
<style type="text/css">
	.st0{fill:#6B6A6A;}
	.st1{fill:none;stroke:#FFFFFF;stroke-miterlimit:10;}
</style>
<title>logo_picturing</title>
<path class="st0" d="M170.3,46.7h-7.4v-2.8h7.4c1.6,0,2.9-1.3,2.9-2.9V6.5c0-1.6-1.3-2.9-2.9-2.9h-7.4V0.8h7.4
	c3.1,0,5.7,2.5,5.7,5.7c0,0,0,0,0,0V41C176,44.1,173.4,46.6,170.3,46.7z"/>
<path class="st0" d="M12.9,45.9H5.7c-3.1,0-5.7-2.6-5.7-5.7V5.7C0,2.6,2.5,0,5.7,0H13v2.8H5.7c-1.6,0-2.9,1.3-2.9,2.9v34.5
	c0,1.6,1.3,2.9,2.9,2.9H13L12.9,45.9z"/>
<path class="st0" d="M39.7,17.3L32.1,4c-7,1.5-12.8,6.5-15.3,13.3H39.7z"/>
<path class="st0" d="M44.3,23.7L52,10.5C48,6,42.4,3.5,36.4,3.5c-1.2,0-2.4,0.1-3.5,0.3L44.3,23.7z"/>
<path class="st0" d="M56.4,31c2.2-6.8,0.8-14.3-3.8-19.9L41.1,31H56.4z"/>
<path class="st0" d="M28.5,25.3l-7.6,13.3c4.8,5.3,12,7.8,19.1,6.6L28.5,25.3z"/>
<path class="st0" d="M31.8,18H16.5c-2.2,6.8-0.8,14.3,3.8,19.9L31.8,18z"/>
<path class="st0" d="M33.2,31.8L40.8,45c7-1.5,12.8-6.5,15.3-13.3H33.2z"/>
<path class="st0" d="M76.5,23c0,5-1.8,7.5-5.3,7.5c-2.2,0-3.7-0.8-4.4-2.5h-0.1c0,0.7,0,1.5,0,2.2v5.6h-2.3v-17c0-1.5,0-2.4-0.1-2.9
	h2.3c0,0.1,0,0.3,0,0.4c0,0.2,0,0.5,0.1,1c0,0.5,0,0.8,0,0.9h0.1c0.4-0.8,0.9-1.5,1.7-1.9c0.8-0.4,1.8-0.6,2.7-0.6
	c1.5-0.1,3.1,0.5,4,1.8C76.1,18.6,76.5,20.5,76.5,23z M74.1,23.1c0.1-1.5-0.2-2.9-0.8-4.3c-0.5-0.9-1.5-1.4-2.6-1.3
	c-1.6-0.2-3.1,0.9-3.4,2.5c-0.3,1.1-0.5,2.2-0.4,3.3c-0.1,1.4,0.2,2.9,0.9,4.1c0.7,0.9,1.8,1.4,2.9,1.3c1,0,2-0.5,2.5-1.3
	C73.9,26,74.2,24.6,74.1,23.1z"/>
<path class="st0" d="M79.4,12.9v-2.3h2.4v2.3L79.4,12.9z M79.4,30.2V15.9h2.4v14.3H79.4z"/>
<path class="st0" d="M87.3,23c-0.1,1.5,0.2,2.9,0.9,4.2c0.6,0.9,1.6,1.4,2.7,1.4c0.8,0,1.5-0.2,2.1-0.7c0.6-0.5,1-1.3,1-2.1l2.4,0.2
	c-0.1,1.3-0.8,2.5-1.8,3.3c-1.1,0.8-2.4,1.3-3.8,1.2c-1.7,0.1-3.4-0.6-4.6-1.9c-1.2-1.6-1.7-3.5-1.6-5.5c-0.1-2,0.4-3.9,1.6-5.5
	c1.1-1.3,2.8-2,4.5-1.9c1.3,0,2.6,0.4,3.6,1.1c1,0.8,1.6,1.9,1.8,3.1l-2.4,0.2c-0.1-0.7-0.4-1.4-0.9-1.9c-0.6-0.5-1.4-0.7-2.1-0.7
	c-1.1-0.1-2.1,0.4-2.7,1.3C87.4,20.1,87.1,21.6,87.3,23z"/>
<path class="st0" d="M104.4,30.1c-0.8,0.2-1.6,0.3-2.4,0.3c-1.9,0-2.8-1.1-2.8-3.2v-9.5h-1.7v-1.7h1.7l0.7-3.2h1.6v3.2h2.6v1.7h-2.7
	v9c-0.1,0.5,0.1,1,0.3,1.4c0.3,0.3,0.7,0.5,1.2,0.4c0.5,0,0.9-0.1,1.4-0.2V30.1z"/>
<path class="st0" d="M108.8,15.9v9c0,0.7,0.1,1.5,0.3,2.2c0.1,0.5,0.5,0.9,0.9,1.1c0.6,0.3,1.2,0.4,1.8,0.4c1,0,2-0.4,2.7-1.2
	c0.7-0.9,1.1-2.1,1-3.3v-8.2h2.4v11.2c0,1.7,0,2.7,0.1,3h-2.2c0,0,0-0.2,0-0.3s0-0.4,0-0.7c0-0.3,0-0.7,0-1.4l0,0
	c-0.4,0.9-1.1,1.6-1.9,2.1c-0.8,0.4-1.7,0.6-2.7,0.6c-1.3,0.1-2.5-0.3-3.4-1.2c-0.8-1.1-1.2-2.5-1.1-3.9v-9.5L108.8,15.9z"/>
<path class="st0" d="M121.5,30.2V19.3c0-1,0-2.1-0.1-3.3h2.2c0.1,1.6,0.1,2.6,0.1,2.9h0.1c0.2-0.9,0.7-1.8,1.3-2.5
	c0.6-0.5,1.3-0.7,2.1-0.7c0.3,0,0.7,0,1,0.1V18c-0.4-0.1-0.8-0.1-1.3-0.1c-0.9,0-1.8,0.5-2.3,1.3c-0.6,1.1-0.9,2.4-0.8,3.6v7.4
	H121.5z"/>
<path class="st0" d="M130.5,12.9v-2.3h2.4v2.3L130.5,12.9z M130.5,30.2V15.9h2.4v14.3H130.5z"/>
<path class="st0" d="M145.5,30.2v-9c0-0.7-0.1-1.5-0.3-2.2c-0.1-0.5-0.5-0.9-0.9-1.1c-0.6-0.3-1.2-0.4-1.8-0.3c-1,0-2,0.4-2.7,1.2
	c-0.7,0.9-1.1,2.1-1,3.3v8.3h-2.4V19c0-1.7,0-2.7-0.1-3h2.2c0,0.1,0,0.2,0,0.4c0,0.2,0,0.4,0,0.7s0,0.7,0,1.4l0,0
	c0.8-1.8,2.6-2.8,4.6-2.7c1.3-0.1,2.5,0.3,3.4,1.2c0.8,1.1,1.2,2.5,1.1,3.9v9.5L145.5,30.2z"/>
<path class="st0" d="M156.9,35.8c-1.3,0.1-2.6-0.3-3.7-0.9c-0.9-0.6-1.5-1.5-1.8-2.6l2.4-0.3c0.1,0.6,0.5,1.2,1.1,1.5
	c0.6,0.4,1.4,0.6,2.1,0.5c2.4,0,3.5-1.4,3.5-4.2v-2.3l0,0c-0.4,0.9-1,1.6-1.9,2.1c-0.8,0.5-1.8,0.7-2.7,0.7
	c-1.5,0.1-2.9-0.6-3.8-1.7c-0.8-1.2-1.2-3-1.2-5.5c0-2.5,0.4-4.3,1.3-5.6c0.9-1.2,2.4-1.9,4-1.8c0.9,0,1.8,0.2,2.6,0.7
	c0.8,0.5,1.4,1.2,1.7,2l0,0c0-0.3,0-0.7,0.1-1.4c0-0.4,0-0.7,0.1-1.1h2.3c-0.1,0.5-0.1,1.5-0.1,3v10.8
	C162.9,33.8,160.9,35.8,156.9,35.8z M160.5,23.1c0-1-0.1-2-0.5-3c-0.3-0.8-0.7-1.4-1.3-1.9c-0.6-0.4-1.3-0.7-2-0.7
	c-1-0.1-2,0.4-2.6,1.3c-0.6,1.3-0.9,2.8-0.8,4.3c-0.1,1.5,0.2,2.9,0.8,4.2c0.6,0.9,1.6,1.4,2.7,1.3c0.7,0,1.4-0.2,2-0.7
	c0.6-0.5,1.1-1.2,1.3-1.9C160.4,25.1,160.5,24.1,160.5,23.1z"/>
<path class="st1" d="M59.9,24.5c0,13-10.5,23.5-23.5,23.5S12.9,37.5,12.9,24.5S23.5,1,36.4,1c0,0,0,0,0,0
	C49.4,1,59.9,11.5,59.9,24.5z"/>
</svg>
